<?xml version="1.0" standalone="no"?>
<!DOCTYPE svg PUBLIC "-//W3C//DTD SVG 20010904//EN"
 "http://www.w3.org/TR/2001/REC-SVG-20010904/DTD/svg10.dtd">
<svg version="1.0" xmlns="http://www.w3.org/2000/svg"
 width="300.000000pt" height="300.000000pt" viewBox="0 0 300.000000 300.000000"
 preserveAspectRatio="xMidYMid meet">
<metadata>
Created by potrace 1.14, written by Peter Selinger 2001-2017
</metadata>
<g transform="translate(0.000000,300.000000) scale(0.100000,-0.100000)"
fill="#000000" stroke="none">
<path d="M0 1500 l0 -1500 1500 0 1500 0 0 1500 0 1500 -1500 0 -1500 0 0
-1500z m1145 279 c91 -45 110 -57 130 -83 20 -26 22 -26 51 -11 45 23 142 20
183 -8 105 -68 94 -65 108 -34 27 59 170 78 234 33 19 -14 49 -32 67 -42 39
-20 62 -60 62 -108 l0 -35 -71 -3 -71 -3 62 -39 c70 -45 90 -76 90 -141 0
-102 -49 -145 -163 -145 -78 0 -106 9 -149 50 l-32 31 -18 -30 c-23 -36 -63
-51 -139 -51 -70 0 -96 9 -144 51 l-37 32 -21 -25 c-34 -41 -79 -58 -152 -58
-75 0 -116 14 -164 59 -19 17 -38 31 -42 31 -15 0 -39 71 -39 119 l0 51 70 0
c68 0 70 -1 70 -25 0 -20 5 -25 25 -25 43 0 28 26 -49 89 -109 89 -116 100
-116 185 0 80 12 105 64 137 43 26 137 25 191 -2z"/>
<path d="M1110 1602 c0 -26 16 -42 94 -97 50 -35 73 -59 85 -86 15 -37 18 -39
61 -39 l45 0 -40 33 c-65 53 -83 76 -90 118 l-7 39 -64 0 c-62 0 -64 1 -64 25
0 14 -4 25 -10 25 -5 0 -10 -8 -10 -18z"/>
<path d="M1470 1522 c0 -12 27 -35 76 -67 41 -26 78 -54 81 -61 3 -9 21 -14
50 -14 l44 0 -55 55 c-53 53 -56 55 -110 55 -53 0 -56 1 -56 25 0 16 -6 25
-15 25 -8 0 -15 -8 -15 -18z"/>
<path d="M1810 1520 c0 -11 5 -20 10 -20 6 0 10 9 10 20 0 11 -4 20 -10 20 -5
0 -10 -9 -10 -20z"/>
<path d="M1400 1355 c0 -18 5 -25 20 -25 11 0 20 6 20 13 0 7 -9 18 -20 25
-18 11 -20 10 -20 -13z"/>
<path d="M1740 1350 c0 -13 7 -20 20 -20 11 0 20 4 20 10 0 5 -9 14 -20 20
-17 9 -20 8 -20 -10z"/>
</g>
</svg>
